<?xml version="1.0" encoding="utf-8"?>
<!-- Generator: Adobe Illustrator 24.1.2, SVG Export Plug-In . SVG Version: 6.00 Build 0)  -->
<svg version="1.1" id="Layer_1" xmlns="http://www.w3.org/2000/svg" xmlns:xlink="http://www.w3.org/1999/xlink" x="0px" y="0px"
	 viewBox="0 0 1000 1000" style="enable-background:new 0 0 1000 1000;" xml:space="preserve">
<style type="text/css">
	.st0{fill:#00F794;}
	.st1{fill:#292929;}
</style>
<g>
	<path class="st0" d="M347.43,348.52c2.1,0,4.06,1.34,4.74,3.45l6.57,20.22c0.68,2.08,2.61,3.45,4.74,3.45
		c0.27,0,0.55-0.02,0.82-0.07c0.03,0,0.06-0.01,0.08-0.01c2.41-0.4,4.17-2.48,4.17-4.92v-16.02c0-2.76,2.23-4.99,4.99-4.99h3.64
		c2.76,0,4.99,2.23,4.99,4.99v15.81c0,2.48,1.81,4.58,4.26,4.94l0.08,0.01c0.25,0.04,0.49,0.05,0.73,0.05
		c2.13,0,4.06-1.37,4.74-3.44l6.13-18.88c0.68-2.11,2.64-3.45,4.74-3.45c0.51,0,1.03,0.08,1.54,0.25l3.47,1.13
		c2.62,0.85,4.05,3.67,3.2,6.29l-6.07,18.67c-0.77,2.35,0.31,4.9,2.52,6c0.03,0.01,0.05,0.03,0.08,0.04
		c0.71,0.36,1.48,0.53,2.23,0.53c1.55,0,3.07-0.73,4.03-2.06l13.89-19.12c0.97-1.35,2.5-2.06,4.04-2.06c1.02,0,2.04,0.31,2.93,0.95
		l2.96,2.16c2.23,1.62,2.73,4.74,1.1,6.97l-13.79,18.97c-1.45,2-1.22,4.75,0.54,6.49l0.06,0.06c0.96,0.95,2.23,1.43,3.5,1.43
		c1.02,0,2.05-0.31,2.93-0.95l13.96-10.15c0.88-0.64,1.91-0.95,2.92-0.95c1.54,0,3.06,0.71,4.04,2.06l2.14,2.95
		c1.62,2.23,1.12,5.35-1.1,6.97l-13.79,10.02c-2,1.45-2.63,4.15-1.49,6.34c0.01,0.03,0.03,0.05,0.04,0.08
		c0.88,1.69,2.6,2.68,4.42,2.68c0.51,0,1.03-0.08,1.54-0.25l17.19-5.59c0.51-0.17,1.03-0.25,1.54-0.25c2.1,0,4.06,1.34,4.74,3.45
		l1.13,3.47c0.85,2.62-0.58,5.43-3.2,6.28l-17,5.52c-2.35,0.76-3.78,3.13-3.38,5.56c0,0.03,0.01,0.06,0.01,0.08
		c0.4,2.41,2.48,4.17,4.92,4.17h19.27c2.76,0,4.99,2.23,4.99,4.99v3.64c0,2.76-2.23,4.99-4.99,4.99h-19.06
		c-2.47,0-4.57,1.81-4.93,4.25l-0.01,0.09c-0.36,2.41,1.07,4.72,3.39,5.47l21.11,6.86c2.62,0.85,4.05,3.67,3.2,6.29l-1.13,3.47
		c-0.68,2.11-2.64,3.45-4.74,3.45c-0.51,0-1.03-0.08-1.54-0.25l-20.91-6.79c-0.51-0.17-1.03-0.25-1.54-0.25
		c-1.85,0-3.6,1.03-4.46,2.76c-0.01,0.03-0.03,0.05-0.04,0.08c-1.09,2.18-0.45,4.83,1.53,6.26l15.56,11.31
		c2.23,1.62,2.73,4.74,1.1,6.97l-2.14,2.95c-0.97,1.35-2.5,2.06-4.04,2.06c-1.02,0-2.04-0.31-2.93-0.95l-15.43-11.21
		c-0.88-0.64-1.91-0.95-2.93-0.95c-1.3,0-2.59,0.51-3.56,1.49l-0.06,0.06c-1.71,1.74-1.91,4.45-0.48,6.43l8.35,11.5
		c1.62,2.23,1.12,5.35-1.1,6.97l-2.95,2.14c-0.88,0.64-1.91,0.95-2.92,0.95c-1.54,0-3.06-0.71-4.04-2.06l-8.22-11.32
		c-0.97-1.33-2.48-2.05-4.04-2.05c-0.78,0-1.57,0.18-2.31,0.57c-0.03,0.01-0.05,0.03-0.08,0.04c-2.16,1.12-3.19,3.64-2.44,5.96
		l6.57,20.22c0.85,2.62-0.58,5.43-3.2,6.29l-3.47,1.13c-0.51,0.17-1.03,0.24-1.54,0.24c-2.1,0-4.06-1.34-4.74-3.45l-6.51-20.03
		c-0.68-2.08-2.61-3.44-4.74-3.44c-0.27,0-0.55,0.02-0.82,0.07c-0.03,0-0.06,0.01-0.08,0.01c-2.41,0.4-4.17,2.48-4.17,4.92v19.27
		c0,2.76-2.23,4.99-4.99,4.99h-3.64c-2.76,0-4.99-2.23-4.99-4.99v-19.06c0-2.48-1.81-4.58-4.26-4.94l-0.08-0.01
		c-0.25-0.04-0.5-0.06-0.74-0.06c-2.13,0-4.06,1.37-4.73,3.45l-3.63,11.18c-0.68,2.11-2.64,3.45-4.74,3.45
		c-0.51,0-1.03-0.08-1.54-0.25l-3.47-1.13c-2.62-0.85-4.05-3.67-3.2-6.29l3.56-10.97c0.77-2.35-0.31-4.9-2.52-6
		c-0.03-0.01-0.05-0.03-0.08-0.04c-0.71-0.36-1.48-0.53-2.23-0.53c-1.55,0-3.07,0.73-4.03,2.06l-10.26,14.13
		c-0.97,1.35-2.5,2.06-4.04,2.06c-1.02,0-2.04-0.31-2.93-0.95l-2.95-2.14c-2.23-1.62-2.73-4.74-1.1-6.97l10.15-13.97
		c1.45-2,1.23-4.76-0.54-6.49l-0.06-0.06c-0.96-0.95-2.23-1.43-3.5-1.43c-1.02,0-2.05,0.31-2.93,0.95L302.39,508
		c-0.88,0.64-1.91,0.95-2.92,0.95c-1.54,0-3.06-0.71-4.04-2.06l-2.14-2.95c-1.62-2.23-1.12-5.34,1.1-6.97l17.42-12.65
		c2-1.45,2.63-4.15,1.49-6.34c-0.01-0.03-0.03-0.05-0.04-0.08c-0.88-1.69-2.6-2.68-4.42-2.68c-0.51,0-1.03,0.08-1.54,0.25
		l-13.31,4.33c-0.51,0.17-1.03,0.25-1.54,0.25c-2.1,0-4.06-1.34-4.74-3.45l-1.13-3.47c-0.85-2.62,0.58-5.43,3.2-6.28l13.12-4.26
		c2.35-0.76,3.78-3.13,3.38-5.56c0-0.03-0.01-0.06-0.01-0.08c-0.4-2.41-2.48-4.17-4.92-4.17h-20.89c-2.76,0-4.99-2.23-4.99-4.99
		v-3.64c0-2.76,2.23-4.99,4.99-4.99h20.69c2.48,0,4.58-1.81,4.94-4.26l0.01-0.08c0.36-2.41-1.07-4.72-3.39-5.47l-15.55-5.06
		c-2.62-0.85-4.05-3.67-3.2-6.29l1.13-3.47c0.68-2.11,2.64-3.45,4.74-3.45c0.51,0,1.03,0.08,1.54,0.25l15.35,4.99
		c0.51,0.17,1.03,0.25,1.54,0.25c1.85,0,3.6-1.03,4.46-2.76c0.01-0.03,0.03-0.05,0.04-0.08c1.09-2.18,0.45-4.83-1.53-6.26
		l-19.53-14.19c-2.23-1.62-2.73-4.74-1.1-6.97l2.14-2.95c0.97-1.35,2.5-2.06,4.04-2.06c1.02,0,2.04,0.31,2.93,0.95l19.38,14.08
		c0.88,0.64,1.9,0.95,2.93,0.95c1.3,0,2.59-0.51,3.56-1.49l0.06-0.06c1.71-1.74,1.91-4.45,0.48-6.43l-10.81-14.87
		c-1.62-2.23-1.12-5.35,1.1-6.97l2.95-2.14c0.88-0.64,1.91-0.95,2.92-0.95c1.54,0,3.06,0.71,4.04,2.06L337,381.1
		c0.97,1.33,2.48,2.06,4.04,2.06c0.78,0,1.57-0.18,2.31-0.57c0.03-0.01,0.05-0.03,0.08-0.04c2.16-1.12,3.19-3.64,2.44-5.96
		l-6.63-20.41c-0.85-2.62,0.58-5.43,3.2-6.29l3.47-1.13C346.4,348.6,346.92,348.52,347.43,348.52 M399.53,439.15
		c8.51,0,15.41-6.9,15.41-15.41s-6.9-15.41-15.41-15.41s-15.41,6.9-15.41,15.41S391.02,439.15,399.53,439.15 M335.95,446.28
		c4.21,0,7.62-3.41,7.62-7.62c0-4.21-3.41-7.62-7.62-7.62c-4.21,0-7.62,3.41-7.62,7.62C328.33,442.87,331.74,446.28,335.95,446.28
		 M371.79,480.02c5.2,0,9.41-4.21,9.41-9.41c0-5.2-4.21-9.41-9.41-9.41c-5.2,0-9.41,4.21-9.41,9.41
		C362.39,475.81,366.6,480.02,371.79,480.02 M347.43,331.49c-2.31,0-4.6,0.36-6.8,1.08l-3.47,1.13c-5.59,1.82-10.14,5.7-12.81,10.95
		c-0.45,0.88-0.83,1.78-1.16,2.69c-0.3-0.01-0.6-0.02-0.9-0.02c-4.68,0-9.15,1.45-12.93,4.2l-2.95,2.15
		c-3.79,2.76-6.45,6.52-7.87,10.65c-0.58-0.05-1.16-0.07-1.75-0.07c-7.04,0-13.71,3.4-17.83,9.1l-2.13,2.93
		c-3.46,4.75-4.86,10.58-3.94,16.39c0.39,2.45,1.17,4.78,2.31,6.91c-2.86,2.54-5.07,5.84-6.31,9.67l-1.12,3.46
		c-1.48,4.54-1.39,9.23-0.04,13.46c-5.62,4-9.28,10.56-9.28,17.96v3.64c0,8.27,4.58,15.49,11.35,19.26
		c-0.78,3.66-0.64,7.56,0.6,11.36l1.13,3.47c1.21,3.72,3.33,6.94,6.06,9.44c-3.47,7.1-3.01,15.83,1.94,22.65l2.15,2.95
		c4.14,5.69,10.8,9.08,17.82,9.08c0.16,0,0.32,0,0.49-0.01c1.43,4.4,4.2,8.23,8.02,10.99l2.93,2.13c3.78,2.75,8.26,4.21,12.94,4.21
		c2.75,0,5.43-0.52,7.94-1.49c2.56,2.87,5.85,5.02,9.6,6.24l3.46,1.13c2.21,0.72,4.5,1.08,6.81,1.08c1.34,0,2.65-0.12,3.93-0.35
		c3.77,6.76,10.98,11.34,19.25,11.34h3.64c5.59,0,10.7-2.09,14.59-5.54c3.37,2.05,7.31,3.21,11.47,3.21c2.31,0,4.6-0.36,6.8-1.08
		l3.47-1.13c5.59-1.82,10.14-5.7,12.81-10.95c0.98-1.92,1.66-3.93,2.04-5.99c3.81-0.41,7.42-1.8,10.56-4.07l2.95-2.15
		c3.62-2.63,6.2-6.17,7.66-10.08c0.15,0,0.31,0,0.46,0c7.04,0,13.71-3.4,17.83-9.1l2.13-2.93c3.07-4.22,4.52-9.28,4.16-14.43
		c6.2-2.28,11.17-7.3,13.3-13.86l1.13-3.46c2.2-6.78,0.93-13.86-2.83-19.32c3.1-3.79,4.95-8.64,4.95-13.9v-3.64
		c0-6.44-2.78-12.24-7.2-16.27c2.16-4.94,2.44-10.43,0.76-15.61l-1.13-3.47c-1.91-5.89-6.11-10.53-11.43-13.07
		c0.52-5.19-0.78-10.59-4.08-15.13l-2.15-2.95c-2.56-3.52-6.09-6.16-10.07-7.66c0.18-1.86,0.13-3.76-0.17-5.66
		c-0.92-5.82-4.06-10.92-8.83-14.38l-2.91-2.12c-3.81-2.77-8.29-4.23-12.98-4.23c-2.47,0-4.9,0.42-7.18,1.21
		c-2.73-4.09-6.73-7.13-11.48-8.67l-3.46-1.13c-2.21-0.72-4.49-1.08-6.81-1.08c-4.73,0-9.19,1.5-12.84,4.11
		c-3.62-2.61-8.06-4.15-12.85-4.15h-3.64c-4.55,0-8.78,1.39-12.3,3.76C357.43,333.27,352.6,331.49,347.43,331.49L347.43,331.49z"/>
</g>
<g>
	<path class="st0" d="M213.12,374.26c2.85-0.84,6.16-1.55,9.93-2.14c3.77-0.59,7.08-0.88,9.93-0.88c3.52,0,6.91,0.34,10.18,1.01
		c3.27,0.67,6.16,1.8,8.67,3.39c2.51,1.59,4.53,3.77,6.03,6.54c1.51,2.77,2.26,6.25,2.26,10.43v70.9h20.62
		c1.01,1.51,1.97,3.65,2.89,6.41c0.92,2.77,1.38,5.66,1.38,8.67c0,5.7-1.3,9.77-3.9,12.19c-2.6,2.43-5.91,3.65-9.93,3.65h-11.06
		v31.43c-1.68,0.33-4.15,0.76-7.42,1.26c-3.27,0.5-6.5,0.76-9.68,0.76c-6.54,0-11.61-0.92-15.21-2.77c-3.61-1.84-5.4-6.29-5.4-13.32
		v-17.35h-62.1c-3.35-1.84-6.29-4.52-8.8-8.04c-2.52-3.52-3.77-7.88-3.77-13.07c0-2.85,0.33-5.95,1.01-9.3
		c0.67-3.35,1.92-6.29,3.77-8.8L213.12,374.26z M224.44,410.22h-0.75l-35.7,53.3h36.45V410.22z"/>
	<path class="st0" d="M568.99,351.44c3.71-1.09,8.03-2.02,12.94-2.78c4.91-0.76,9.22-1.15,12.94-1.15c4.59,0,9.01,0.44,13.27,1.31
		c4.26,0.88,8.03,2.35,11.3,4.42c3.28,2.08,5.9,4.91,7.87,8.52c1.96,3.61,2.95,8.14,2.95,13.6v92.39h26.86
		c1.31,1.97,2.57,4.75,3.77,8.35c1.2,3.6,1.8,7.37,1.8,11.3c0,7.43-1.7,12.73-5.08,15.89c-3.39,3.17-7.7,4.75-12.94,4.75h-14.41V549
		c-2.19,0.44-5.41,0.98-9.67,1.64s-8.47,0.98-12.61,0.98c-8.52,0-15.13-1.2-19.82-3.61c-4.7-2.4-7.04-8.19-7.04-17.36v-22.61h-80.92
		c-4.38-2.4-8.19-5.89-11.47-10.48c-3.28-4.59-4.91-10.27-4.91-17.04c0-3.71,0.43-7.75,1.31-12.12c0.87-4.37,2.51-8.19,4.92-11.47
		L568.99,351.44z M583.73,398.29h-0.98l-46.52,69.45h47.5V398.29z"/>
</g>
<path class="st1" d="M839.89,732.98l-158.8-158.8c27.11-38.3,43.1-85,43.1-135.38c0-129.56-105.4-234.96-234.96-234.96
	S254.27,309.24,254.27,438.8s105.4,234.96,234.96,234.96c53.28,0,102.46-17.86,141.92-47.86L789.06,783.8
	c14.03,14.03,36.79,14.03,50.82,0S853.92,747.02,839.89,732.98z M307.7,438.8c0-100.1,81.43-181.53,181.53-181.53
	S670.76,338.7,670.76,438.8c0,43.91-15.68,84.23-41.73,115.66l-24.15,24.15c-31.43,26.05-71.75,41.73-115.66,41.73
	C389.13,620.33,307.7,538.89,307.7,438.8z"/>
</svg>
