<?xml version="1.0" encoding="utf-8"?>
<!-- Generator: Adobe Illustrator 24.1.2, SVG Export Plug-In . SVG Version: 6.00 Build 0)  -->
<svg version="1.1" id="Layer_1" xmlns="http://www.w3.org/2000/svg" xmlns:xlink="http://www.w3.org/1999/xlink" x="0px" y="0px"
	 viewBox="0 0 394.6 138.2" style="enable-background:new 0 0 394.6 138.2;" xml:space="preserve">
<style type="text/css">
	.st0{fill:url(#SVGID_1_);}
	.st1{fill:#DDDDDD;}
	.st2{fill:#3E3E3E;}
	.st3{font-family:'BalooDa2-Bold';}
	.st4{font-size:50px;}
</style>
<linearGradient id="SVGID_1_" gradientUnits="userSpaceOnUse" x1="-100.237" y1="-27.319" x2="294.363" y2="-27.319" gradientTransform="matrix(1 0 0 1 100.237 96.4245)">
	<stop  offset="0" style="stop-color:#00A090"/>
	<stop  offset="0.5" style="stop-color:#00F7B0"/>
	<stop  offset="0.9944" style="stop-color:#CFFFEC"/>
</linearGradient>
<path class="st0" d="M389.6,79H5c-2.8,0-5-2.2-5-5v-9.7c0-2.8,2.2-5,5-5h384.6c2.8,0,5,2.2,5,5V74C394.6,76.7,392.4,79,389.6,79z"/>
<g>
	<path class="st1" d="M26.1,113.2c0,0.6-0.2,1.1-0.5,1.6c-0.3,0.4-0.7,0.8-1.1,1c-0.8-0.5-1.7-1-2.6-1.4c-1-0.4-2.2-0.6-3.6-0.6
		c-2.6,0-4.6,0.8-6.1,2.5s-2.3,4.1-2.3,7.2c0,3.2,0.8,5.6,2.4,7.2s3.7,2.4,6.3,2.4c1.4,0,2.6-0.2,3.6-0.6s1.9-0.8,2.7-1.3
		c0.4,0.3,0.8,0.6,1,1.1s0.4,1,0.4,1.6c0,0.5-0.1,1-0.4,1.4s-0.7,0.8-1.4,1.1c-0.6,0.4-1.5,0.7-2.6,1s-2.5,0.5-4.1,0.5
		c-2,0-3.8-0.3-5.6-0.9c-1.8-0.6-3.2-1.5-4.5-2.7s-2.3-2.7-3-4.5s-1.1-3.9-1.1-6.4c0-2.4,0.4-4.4,1.1-6.2s1.7-3.3,3-4.5
		c1.2-1.2,2.7-2.2,4.4-2.8c1.7-0.6,3.5-0.9,5.3-0.9c1.3,0,2.5,0.1,3.5,0.3c1.1,0.2,2,0.5,2.7,0.9c0.8,0.4,1.3,0.8,1.7,1.4
		C25.9,112,26.1,112.6,26.1,113.2z"/>
	<path class="st1" d="M39.1,115c3,0,5.3,0.6,7.1,1.9s2.7,3.2,2.7,5.9v10.5c0,0.7-0.2,1.3-0.5,1.7s-0.8,0.8-1.4,1.1
		c-0.8,0.5-1.9,0.9-3.2,1.2s-2.8,0.4-4.4,0.4c-3,0-5.4-0.6-7.1-1.7c-1.7-1.2-2.6-2.9-2.6-5.2c0-2,0.6-3.6,1.9-4.6
		c1.3-1.1,3.2-1.7,5.6-2l6.2-0.6v-0.8c0-1.1-0.4-2-1.2-2.5s-2-0.8-3.5-0.8c-1.2,0-2.3,0.1-3.4,0.4c-1.1,0.3-2.1,0.6-3,1.1
		c-0.3-0.2-0.6-0.6-0.8-1s-0.3-0.9-0.3-1.3c0-0.6,0.1-1.1,0.4-1.5s0.8-0.7,1.4-1c0.9-0.4,1.9-0.6,3-0.8C36.9,115.1,38,115,39.1,115z
		 M39.3,133.4c0.9,0,1.7-0.1,2.4-0.2s1.2-0.4,1.6-0.6v-5l-4.4,0.4c-1.2,0.1-2.1,0.4-2.8,0.8c-0.6,0.4-1,1.1-1,1.9c0,0.9,0.3,1.6,1,2
		S37.9,133.4,39.3,133.4z"/>
	<path class="st1" d="M71.2,131c0,2.1-0.8,3.8-2.4,5s-3.9,1.8-6.9,1.8c-1.2,0-2.4-0.1-3.4-0.3s-1.9-0.4-2.6-0.8
		c-0.7-0.4-1.3-0.8-1.7-1.3s-0.6-1.1-0.6-1.6c0-0.6,0.1-1.1,0.4-1.5c0.3-0.4,0.6-0.8,1-1c0.8,0.5,1.8,1,2.9,1.4s2.4,0.6,3.8,0.6
		c1.2,0,2.2-0.2,2.8-0.6c0.6-0.4,0.9-1,0.9-1.7c0-1.2-0.9-2.1-2.7-2.4l-2.5-0.6c-2.2-0.5-3.9-1.3-5-2.3s-1.6-2.4-1.6-4.1
		c0-2,0.8-3.6,2.4-4.8c1.6-1.2,3.8-1.8,6.6-1.8c1.1,0,2.1,0.1,3,0.2c0.9,0.2,1.7,0.4,2.4,0.7c0.7,0.3,1.2,0.7,1.6,1.1
		s0.6,0.9,0.6,1.5c0,0.5-0.1,1-0.4,1.4c-0.2,0.4-0.5,0.7-0.9,1c-0.3-0.2-0.6-0.4-1.1-0.5c-0.4-0.2-0.9-0.4-1.4-0.5s-1.1-0.3-1.7-0.4
		s-1.2-0.2-1.7-0.2c-1.2,0-2.1,0.2-2.8,0.6s-1,0.9-1,1.6c0,0.5,0.2,0.9,0.6,1.3s1,0.6,2,0.8l2.2,0.5c2.5,0.6,4.3,1.4,5.4,2.5
		C70.7,127.8,71.2,129.3,71.2,131z"/>
	<path class="st1" d="M97.2,126.4c0,1.8-0.3,3.3-0.8,4.7s-1.3,2.6-2.2,3.6c-1,1-2.1,1.8-3.5,2.3s-2.9,0.8-4.6,0.8s-3.2-0.3-4.6-0.8
		s-2.5-1.3-3.5-2.3s-1.7-2.2-2.2-3.6s-0.8-3-0.8-4.8s0.3-3.3,0.8-4.7s1.3-2.6,2.3-3.6s2.2-1.7,3.5-2.3s2.9-0.8,4.5-0.8
		c1.7,0,3.2,0.3,4.5,0.8s2.5,1.3,3.5,2.3s1.7,2.2,2.3,3.6C96.9,123.1,97.2,124.7,97.2,126.4z M86.1,119.5c-1.6,0-2.9,0.6-3.8,1.8
		s-1.4,2.9-1.4,5.1c0,2.2,0.5,3.9,1.4,5.1s2.2,1.8,3.9,1.8s2.9-0.6,3.9-1.8c0.9-1.2,1.4-2.9,1.4-5.1c0-2.2-0.5-3.9-1.4-5.1
		C89,120.1,87.7,119.5,86.1,119.5z"/>
	<path class="st1" d="M118.6,131c0,2.1-0.8,3.8-2.4,5s-3.9,1.8-6.9,1.8c-1.2,0-2.4-0.1-3.4-0.3s-1.9-0.4-2.6-0.8
		c-0.7-0.4-1.3-0.8-1.7-1.3s-0.6-1.1-0.6-1.6c0-0.6,0.1-1.1,0.4-1.5s0.6-0.8,1-1c0.8,0.5,1.8,1,2.9,1.4s2.4,0.6,3.8,0.6
		c1.2,0,2.2-0.2,2.8-0.6c0.6-0.4,0.9-1,0.9-1.7c0-1.2-0.9-2.1-2.7-2.4l-2.5-0.6c-2.2-0.5-3.9-1.3-5-2.3s-1.6-2.4-1.6-4.1
		c0-2,0.8-3.6,2.4-4.8c1.6-1.2,3.8-1.8,6.6-1.8c1.1,0,2.1,0.1,3,0.2c0.9,0.2,1.7,0.4,2.4,0.7c0.7,0.3,1.2,0.7,1.6,1.1
		s0.6,0.9,0.6,1.5c0,0.5-0.1,1-0.4,1.4c-0.2,0.4-0.5,0.7-0.9,1c-0.3-0.2-0.6-0.4-1.1-0.5c-0.4-0.2-0.9-0.4-1.4-0.5s-1.1-0.3-1.7-0.4
		s-1.2-0.2-1.7-0.2c-1.2,0-2.1,0.2-2.8,0.6s-1,0.9-1,1.6c0,0.5,0.2,0.9,0.6,1.3s1,0.6,2,0.8l2.2,0.5c2.5,0.6,4.3,1.4,5.4,2.5
		C118,127.8,118.6,129.3,118.6,131z"/>
	<path class="st1" d="M143.3,119.6c-0.9,0-1.7,0.1-2.5,0.4s-1.4,0.7-2,1.3s-1,1.3-1.3,2.1c-0.3,0.9-0.5,1.8-0.5,2.9
		c0,2.2,0.6,3.9,1.8,5.1c1.2,1.2,2.7,1.7,4.6,1.7c1.1,0,2-0.1,2.7-0.4c0.7-0.3,1.5-0.6,2.1-0.9c0.4,0.3,0.8,0.6,1,1
		c0.3,0.4,0.4,0.9,0.4,1.4c0,1-0.6,1.9-1.8,2.5c-1.2,0.7-2.8,1-4.9,1c-1.7,0-3.3-0.2-4.7-0.7s-2.7-1.2-3.7-2.1
		c-1-0.9-1.8-2.1-2.4-3.6c-0.6-1.5-0.8-3.1-0.8-4.9c0-1.9,0.3-3.6,0.9-5s1.4-2.6,2.5-3.6c1-0.9,2.3-1.7,3.6-2.1s2.9-0.7,4.4-0.7
		c2,0,3.6,0.4,4.9,1.1c1.2,0.7,1.8,1.6,1.8,2.6c0,0.5-0.1,0.9-0.4,1.3s-0.6,0.7-0.9,0.9c-0.6-0.3-1.3-0.6-2-0.9
		C145.2,119.7,144.3,119.6,143.3,119.6z"/>
	<path class="st1" d="M174.6,126.4c0,1.8-0.3,3.3-0.8,4.7s-1.3,2.6-2.2,3.6c-1,1-2.1,1.8-3.5,2.3s-2.9,0.8-4.6,0.8s-3.2-0.3-4.6-0.8
		c-1.4-0.5-2.5-1.3-3.5-2.3s-1.7-2.2-2.2-3.6s-0.8-3-0.8-4.8s0.3-3.3,0.8-4.7s1.3-2.6,2.3-3.6s2.1-1.7,3.5-2.3s2.9-0.8,4.5-0.8
		s3.2,0.3,4.5,0.8s2.5,1.3,3.5,2.3s1.7,2.2,2.3,3.6C174.4,123.1,174.6,124.7,174.6,126.4z M163.5,119.5c-1.6,0-2.9,0.6-3.9,1.8
		c-0.9,1.2-1.4,2.9-1.4,5.1c0,2.2,0.5,3.9,1.4,5.1s2.2,1.8,3.9,1.8s2.9-0.6,3.9-1.8c0.9-1.2,1.4-2.9,1.4-5.1c0-2.2-0.5-3.9-1.4-5.1
		C166.4,120.1,165.2,119.5,163.5,119.5z"/>
	<path class="st1" d="M192.4,120.4c-0.7-0.6-1.7-0.9-3-0.9c-0.9,0-1.7,0.1-2.4,0.3c-0.7,0.2-1.4,0.5-1.9,0.8v16.5
		c-0.3,0.1-0.6,0.1-1.1,0.2c-0.4,0.1-1,0.1-1.5,0.1c-1.1,0-1.8-0.2-2.4-0.6c-0.5-0.4-0.8-1.1-0.8-2.1v-14.5c0-0.7,0.1-1.3,0.4-1.8
		c0.3-0.4,0.8-0.9,1.4-1.3c0.9-0.6,2-1.1,3.5-1.5c1.4-0.4,3.1-0.6,4.8-0.6c3.1,0,5.5,0.7,7.2,2.1s2.6,3.4,2.6,6.1v13.9
		c-0.2,0.1-0.6,0.1-1.1,0.2c-0.5,0.1-1,0.1-1.5,0.1c-1.1,0-1.9-0.2-2.4-0.6s-0.8-1.1-0.8-2.1v-11.5
		C193.5,122,193.1,121.1,192.4,120.4z"/>
	<path class="st1" d="M210.5,117.1h8.2c0.1,0.2,0.3,0.6,0.4,0.9c0.1,0.4,0.2,0.8,0.2,1.3c0,0.8-0.2,1.4-0.5,1.7
		c-0.3,0.3-0.9,0.5-1.4,0.5h-6.5v15.6c-0.3,0.1-0.6,0.1-1.1,0.2c-0.4,0.1-1,0.1-1.5,0.1c-1.1,0-1.8-0.2-2.4-0.6
		c-0.5-0.4-0.8-1.1-0.8-2.1v-20c0-1.4,0.2-2.7,0.7-3.7c0.4-1,1.1-1.9,1.9-2.5c0.8-0.7,1.8-1.2,2.9-1.5s2.3-0.5,3.7-0.5
		c4,0,6,1.1,6,3.2c0,0.5-0.1,0.9-0.3,1.3s-0.4,0.7-0.7,0.9c-0.6-0.2-1.2-0.4-1.9-0.6s-1.5-0.2-2.2-0.2c-1.6,0-2.7,0.3-3.4,0.9
		s-1.1,1.6-1.1,2.9v2.2C210.7,117.1,210.5,117.1,210.5,117.1z M223.5,109.3c0-0.9,0.3-1.6,0.9-2.2s1.4-0.9,2.4-0.9s1.8,0.3,2.4,0.9
		s0.9,1.4,0.9,2.2c0,0.9-0.3,1.7-0.9,2.3c-0.6,0.6-1.4,0.9-2.4,0.9s-1.8-0.3-2.4-0.9C223.8,110.9,223.5,110.2,223.5,109.3z
		 M223.9,115.8c0.2-0.1,0.6-0.1,1.1-0.2s1-0.1,1.5-0.1c1.1,0,1.9,0.2,2.4,0.6s0.8,1.1,0.8,2.1v18.9c-0.2,0.1-0.6,0.1-1.1,0.2
		c-0.5,0.1-1,0.1-1.5,0.1c-1.1,0-1.9-0.2-2.4-0.6s-0.8-1.1-0.8-2.1V115.8z"/>
	<path class="st1" d="M241.4,137.1c-0.3,0.1-0.6,0.1-1.1,0.2c-0.4,0.1-1,0.1-1.5,0.1c-1.1,0-1.8-0.2-2.4-0.6
		c-0.5-0.4-0.8-1.1-0.8-2.1v-14.4c0-0.8,0.2-1.5,0.5-2c0.4-0.5,0.9-1,1.6-1.4c0.9-0.6,2.1-1,3.5-1.4s2.9-0.5,4.5-0.5
		c2.9,0,4.3,0.9,4.3,2.7c0,0.4-0.1,0.8-0.2,1.2s-0.3,0.7-0.4,0.9c-0.7-0.1-1.6-0.2-2.6-0.2c-1.1,0-2.1,0.1-3,0.4s-1.7,0.5-2.4,0.9
		L241.4,137.1L241.4,137.1z"/>
	<path class="st1" d="M285.2,137.1c-0.2,0.1-0.6,0.1-1.1,0.2c-0.5,0.1-1,0.1-1.5,0.1c-1.1,0-1.9-0.2-2.4-0.6s-0.8-1.1-0.8-2.1v-11.8
		c0-1.2-0.3-2.1-1-2.6s-1.5-0.8-2.6-0.8c-0.7,0-1.4,0.1-2.1,0.4s-1.3,0.6-1.8,1.1c0.1,0.4,0.1,0.9,0.1,1.3v14.8
		c-0.2,0.1-0.6,0.1-1.1,0.2c-0.5,0.1-1,0.1-1.5,0.1c-1.1,0-1.9-0.2-2.4-0.6s-0.8-1.1-0.8-2.1v-11.8c0-1.2-0.4-2.1-1-2.6
		c-0.7-0.5-1.6-0.8-2.7-0.8c-0.8,0-1.5,0.1-2.1,0.4c-0.6,0.2-1.2,0.5-1.6,0.7v16.5c-0.3,0.1-0.6,0.1-1.1,0.2c-0.5,0.1-1,0.1-1.5,0.1
		c-1.1,0-1.8-0.2-2.4-0.6c-0.5-0.4-0.8-1.1-0.8-2.1v-14.5c0-0.7,0.1-1.3,0.4-1.7c0.3-0.5,0.8-0.9,1.4-1.3c0.9-0.6,2.1-1.1,3.4-1.5
		s2.8-0.6,4.3-0.6c2.8,0,5,0.7,6.7,2.2c0.9-0.6,1.9-1.2,3-1.6s2.5-0.6,4-0.6c1.2,0,2.3,0.1,3.4,0.4s2,0.8,2.7,1.4s1.4,1.4,1.8,2.4
		c0.5,1,0.7,2.1,0.7,3.5L285.2,137.1L285.2,137.1z"/>
	<path class="st1" d="M299.2,115c3,0,5.3,0.6,7.1,1.9s2.6,3.2,2.6,5.9v10.5c0,0.7-0.2,1.3-0.5,1.7s-0.8,0.8-1.4,1.1
		c-0.9,0.5-1.9,0.9-3.2,1.2s-2.8,0.4-4.4,0.4c-3,0-5.4-0.6-7.1-1.7c-1.7-1.2-2.6-2.9-2.6-5.2c0-2,0.6-3.6,1.9-4.6
		c1.3-1.1,3.1-1.7,5.6-2l6.2-0.6v-0.8c0-1.1-0.4-2-1.2-2.5c-0.8-0.5-2-0.8-3.5-0.8c-1.2,0-2.3,0.1-3.4,0.4s-2.1,0.6-3,1.1
		c-0.3-0.2-0.6-0.6-0.8-1c-0.2-0.4-0.3-0.9-0.3-1.3c0-0.6,0.1-1.1,0.4-1.5s0.8-0.7,1.4-1c0.9-0.4,1.9-0.6,3-0.8S298.1,115,299.2,115
		z M299.4,133.4c0.9,0,1.7-0.1,2.4-0.2s1.2-0.4,1.6-0.6v-5L299,128c-1.2,0.1-2.1,0.4-2.8,0.8c-0.6,0.4-1,1.1-1,1.9
		c0,0.9,0.3,1.6,1,2C296.9,133.2,297.9,133.4,299.4,133.4z"/>
	<path class="st1" d="M334.4,133c0,0.7-0.1,1.2-0.5,1.7c-0.3,0.4-0.8,0.8-1.4,1.2c-0.8,0.5-1.8,0.9-3,1.3s-2.7,0.6-4.3,0.6
		c-3.6,0-6.5-0.9-8.6-2.8s-3.2-4.7-3.2-8.5c0-2,0.3-3.7,0.9-5.1s1.4-2.6,2.3-3.6c1-0.9,2.1-1.6,3.5-2.1c1.3-0.4,2.8-0.7,4.3-0.7
		c0.8,0,1.6,0.1,2.3,0.2s1.4,0.4,2,0.6v-8.2c0.2-0.1,0.6-0.2,1.1-0.2c0.5-0.1,1-0.1,1.5-0.1c1.1,0,1.9,0.2,2.4,0.6s0.8,1.1,0.8,2.1
		L334.4,133L334.4,133z M328.7,120.5c-0.5-0.3-1-0.5-1.6-0.7s-1.2-0.3-2-0.3c-1.7,0-3.1,0.5-4.2,1.6s-1.7,2.9-1.7,5.4
		c0,2.3,0.5,4,1.6,5.1s2.5,1.6,4.4,1.6c0.8,0,1.5-0.1,2-0.3c0.6-0.2,1-0.4,1.4-0.6L328.7,120.5L328.7,120.5z"/>
	<path class="st1" d="M361.4,126.4c0,1.8-0.3,3.3-0.8,4.7s-1.3,2.6-2.2,3.6c-1,1-2.1,1.8-3.5,2.3s-2.9,0.8-4.6,0.8s-3.2-0.3-4.6-0.8
		s-2.5-1.3-3.5-2.3s-1.7-2.2-2.2-3.6s-0.8-3-0.8-4.8s0.3-3.3,0.8-4.7s1.3-2.6,2.3-3.6s2.1-1.7,3.5-2.3c1.4-0.5,2.9-0.8,4.5-0.8
		s3.2,0.3,4.5,0.8s2.5,1.3,3.5,2.3s1.7,2.2,2.3,3.6C361.1,123.1,361.4,124.7,361.4,126.4z M350.3,119.5c-1.6,0-2.9,0.6-3.9,1.8
		c-0.9,1.2-1.4,2.9-1.4,5.1c0,2.2,0.5,3.9,1.4,5.1s2.2,1.8,3.9,1.8s3-0.6,3.9-1.8s1.4-2.9,1.4-5.1c0-2.2-0.5-3.9-1.4-5.1
		C353.2,120.1,351.9,119.5,350.3,119.5z"/>
	<path class="st1" d="M382.8,131c0,2.1-0.8,3.8-2.4,5s-3.9,1.8-6.9,1.8c-1.2,0-2.4-0.1-3.4-0.3s-1.9-0.4-2.6-0.8
		c-0.7-0.4-1.3-0.8-1.7-1.3s-0.6-1.1-0.6-1.6c0-0.6,0.1-1.1,0.4-1.5s0.6-0.8,1-1c0.8,0.5,1.8,1,2.9,1.4s2.4,0.6,3.8,0.6
		c1.2,0,2.2-0.2,2.8-0.6c0.6-0.4,1-1,1-1.7c0-1.2-0.9-2.1-2.7-2.4l-2.5-0.6c-2.2-0.5-3.9-1.3-5-2.3s-1.6-2.4-1.6-4.1
		c0-2,0.8-3.6,2.4-4.8c1.6-1.2,3.8-1.8,6.6-1.8c1.1,0,2.1,0.1,3,0.2s1.7,0.4,2.4,0.7c0.7,0.3,1.2,0.7,1.6,1.1s0.6,0.9,0.6,1.5
		c0,0.5-0.1,1-0.4,1.4c-0.2,0.4-0.5,0.7-0.9,1c-0.3-0.2-0.6-0.4-1.1-0.5c-0.4-0.2-0.9-0.4-1.5-0.5s-1.1-0.3-1.7-0.4
		s-1.2-0.2-1.7-0.2c-1.2,0-2.1,0.2-2.8,0.6s-1,0.9-1,1.6c0,0.5,0.2,0.9,0.6,1.3s1,0.6,2,0.8l2.2,0.5c2.5,0.6,4.3,1.4,5.4,2.5
		C382.2,127.8,382.8,129.3,382.8,131z"/>
</g>
<text transform="matrix(1 0 0 1 9.129333e-02 35.7999)" class="st2 st3 st4">960</text>
<text transform="matrix(1 0 0 1 375.3007 35.7997)" class="st2 st3 st4">1</text>
</svg>
