<?xml version="1.0" encoding="utf-8"?>
<!-- Generator: Adobe Illustrator 24.1.2, SVG Export Plug-In . SVG Version: 6.00 Build 0)  -->
<svg version="1.1" id="Camada_1" xmlns="http://www.w3.org/2000/svg" xmlns:xlink="http://www.w3.org/1999/xlink" x="0px" y="0px"
	 viewBox="0 0 500 500" style="enable-background:new 0 0 500 500;" xml:space="preserve">
<style type="text/css">
	.st0{fill:#0EE6A1;}
</style>
<g>
	<path class="st0" d="M409.4,271.3c0.8-5.5,5.5-9.5,11.1-9.5h42.8c6.2,0,11.2-5,11.2-11.2v-8.2c0-6.2-5-11.2-11.2-11.2H420
		c-5.5,0-10.1-4-11-9.4c0-0.1,0-0.1,0-0.2c-0.9-5.5,2.3-10.8,7.6-12.5l38.2-12.4c5.9-1.9,9.1-8.2,7.2-14.1l-2.5-7.8
		c-1.9-5.9-8.2-9.1-14.1-7.2l-38.6,12.5c-5.2,1.7-10.9-0.6-13.4-5.5c0-0.1-0.1-0.1-0.1-0.2c-2.6-4.9-1.1-11,3.3-14.2l31-22.5
		c5-3.6,6.1-10.6,2.5-15.6l-4.8-6.6c-3.6-5-10.6-6.1-15.6-2.5l-31.4,22.8c-4.4,3.2-10.5,2.8-14.4-1.1l-0.1-0.1
		c-4-3.9-4.5-10.1-1.2-14.6l31-42.6c3.6-5,2.5-12-2.5-15.6l-6.6-4.8c-5-3.6-12-2.5-15.6,2.5l-31.2,42.9c-3.2,4.4-9.2,5.9-14.1,3.4
		c-0.1,0-0.1-0.1-0.2-0.1c-5-2.5-7.4-8.2-5.6-13.5l13.6-41.9c1.9-5.9-1.3-12.2-7.2-14.1l-7.8-2.5c-5.9-1.9-12.2,1.3-14.1,7.2
		l-13.8,42.4c-1.7,5.2-6.9,8.4-12.3,7.6l-0.2,0c-5.5-0.8-9.6-5.5-9.6-11.1V44.3c0-6.2-5-11.2-11.2-11.2h-8.2
		c-6.2,0-11.2,5-11.2,11.2v36c0,5.5-4,10.2-9.4,11c-0.1,0-0.1,0-0.2,0c-5.5,0.9-10.8-2.3-12.5-7.6l-14.8-45.4
		c-1.9-5.9-8.2-9.1-14.1-7.2l-7.8,2.5c-5.9,1.9-9.1,8.2-7.2,14.1l14.9,45.8c1.7,5.2-0.6,10.9-5.5,13.4c-0.1,0-0.1,0.1-0.2,0.1
		c-4.9,2.6-11,1.2-14.2-3.3l-24-33c-3.6-5-10.6-6.1-15.6-2.5l-6.6,4.8c-5,3.6-6.1,10.6-2.5,15.6l24.3,33.4
		c3.2,4.4,2.8,10.5-1.1,14.4l-0.1,0.1c-3.9,3.9-10.1,4.5-14.6,1.2L81,106.3c-5-3.6-12-2.5-15.6,2.5l-4.8,6.6c-3.6,5-2.5,12,2.5,15.6
		l43.8,31.9c4.4,3.2,5.9,9.2,3.4,14.1c0,0.1-0.1,0.1-0.1,0.2c-2.5,5-8.2,7.4-13.5,5.6l-34.5-11.2c-5.9-1.9-12.2,1.3-14.1,7.2
		l-2.5,7.8c-1.9,5.9,1.3,12.2,7.2,14.1L87.7,212c5.2,1.7,8.4,6.9,7.6,12.3l0,0.2c-0.8,5.5-5.5,9.6-11.1,9.6H37.8
		c-6.2,0-11.2,5-11.2,11.2v8.2c0,6.2,5,11.2,11.2,11.2h46.9c5.5,0,10.2,4,11,9.4c0,0.1,0,0.1,0,0.2c0.9,5.5-2.3,10.8-7.6,12.5
		l-29.5,9.6c-5.9,1.9-9.1,8.2-7.2,14.1l2.5,7.8c1.9,5.9,8.2,9.1,14.1,7.2l29.9-9.7c5.2-1.7,10.9,0.6,13.4,5.5c0,0.1,0.1,0.1,0.1,0.2
		c2.6,4.9,1.2,11-3.3,14.2l-39.1,28.4c-5,3.6-6.1,10.6-2.5,15.6l4.8,6.6c3.6,5,10.6,6.1,15.6,2.5l39.5-28.7
		c4.4-3.2,10.5-2.8,14.4,1.1l0.1,0.1c4,3.9,4.5,10.1,1.2,14.6l-22.8,31.4c-3.6,5-2.5,12,2.5,15.6l6.6,4.8c5,3.6,12,2.5,15.6-2.5
		l23-31.7c3.2-4.4,9.2-5.9,14.1-3.4c0.1,0,0.1,0.1,0.2,0.1c5,2.5,7.4,8.2,5.6,13.5l-8,24.6c-1.9,5.9,1.3,12.2,7.2,14.1l7.8,2.5
		c5.9,1.9,12.2-1.3,14.1-7.2l8.1-25.1c1.7-5.2,6.9-8.4,12.3-7.6l0.2,0c5.5,0.8,9.6,5.5,9.6,11.1v42.8c0,6.2,5,11.2,11.2,11.2h8.2
		c6.2,0,11.2-5,11.2-11.2v-43.2c0-5.5,4-10.1,9.4-11c0.1,0,0.1,0,0.2,0c5.5-0.9,10.8,2.3,12.5,7.6l14.6,45c1.9,5.9,8.2,9.1,14.1,7.2
		l7.8-2.5c5.9-1.9,9.1-8.2,7.2-14.1L320,402.1c-1.7-5.2,0.6-10.9,5.5-13.4c0.1,0,0.1-0.1,0.2-0.1c4.9-2.6,11-1.1,14.2,3.3l18.5,25.4
		c3.6,5,10.6,6.1,15.6,2.5l6.6-4.8c5-3.6,6.1-10.6,2.5-15.6l-18.8-25.8c-3.2-4.4-2.8-10.5,1.1-14.4l0.1-0.1c3.9-4,10.1-4.5,14.6-1.2
		l34.6,25.2c5,3.6,12,2.5,15.6-2.5l4.8-6.6c3.6-5,2.5-12-2.5-15.6l-34.9-25.4c-4.4-3.2-5.9-9.2-3.4-14.1c0-0.1,0.1-0.1,0.1-0.2
		c2.5-5,8.2-7.4,13.5-5.6l46.9,15.2c5.9,1.9,12.2-1.3,14.1-7.2l2.5-7.8c1.9-5.9-1.3-12.2-7.2-14.1l-47.4-15.4
		c-5.2-1.7-8.4-6.9-7.6-12.3L409.4,271.3z M162.4,250.1c-9.4,0-17.1-7.7-17.1-17.1s7.7-17.1,17.1-17.1s17.1,7.7,17.1,17.1
		S171.8,250.1,162.4,250.1z M242.9,325.8c-11.7,0-21.1-9.5-21.1-21.1c0-11.7,9.4-21.1,21.1-21.1S264,293,264,304.7
		C264,316.4,254.5,325.8,242.9,325.8z M305.1,234.1c-19.1,0-34.6-15.5-34.6-34.6s15.5-34.6,34.6-34.6s34.6,15.5,34.6,34.6
		S324.2,234.1,305.1,234.1z"/>
</g>
</svg>
