<?xml version="1.0" encoding="utf-8"?>
<!-- Generator: Adobe Illustrator 24.1.0, SVG Export Plug-In . SVG Version: 6.00 Build 0)  -->
<svg version="1.1" id="Layer_1" xmlns="http://www.w3.org/2000/svg" xmlns:xlink="http://www.w3.org/1999/xlink" x="0px" y="0px"
	 viewBox="0 0 567.73 181.51" style="enable-background:new 0 0 567.73 181.51;" xml:space="preserve">
<style type="text/css">
	.st0{fill:#3E3E3E;}
</style>
<g id="fBI7Dj_1_">
	<g>
		<path class="st0" d="M97.2,104.25c5.97,4.08,12.01,7.58,18.7,9.78c2.16,0.71,4.32,0.75,6.56,0.2c5.41-1.33,10.55-3.4,15.67-5.53
			c12.38-5.15,24.47-10.92,36.43-16.96c0.76-0.38,1.51-0.82,2.31-1.1c1.23-0.42,2.37,0.05,2.85,1.05c0.47,0.99,0.13,2.23-0.84,2.94
			c-0.27,0.2-0.59,0.34-0.89,0.5c-14.96,7.49-29.97,14.86-45.66,20.75c-3.04,1.14-6.13,2.1-9.28,2.87
			c-2.92,0.72-5.73,0.45-8.57-0.46c-4.74-1.53-9.15-3.74-13.53-6.07c-0.59-0.32-1.2-0.61-1.96-1c-0.5,0.92-0.29,1.85-0.29,2.72
			c-0.02,14.87-0.01,29.73-0.01,44.6c0,0.6,0.02,1.2,0,1.79c-0.09,2.22-0.76,2.91-2.9,3c-0.34,0.02-0.68,0-1.03,0
			c-18.45,0-36.91,0-55.36,0c-0.6,0-1.2,0.02-1.79-0.03c-1.3-0.09-2.02-0.88-2.2-2.11c-0.11-0.75-0.07-1.53-0.07-2.3
			c0-33.92,0-67.84,0-101.76c0-0.34,0-0.68,0-1.03c0.05-2.84,0.67-3.5,3.44-3.52c2.82-0.02,5.64-0.06,8.46,0.02
			c1.34,0.04,1.79-0.42,1.74-1.76c-0.09-2.56-0.06-5.13-0.01-7.69c0.04-2.31,0.62-2.85,2.88-2.96c1.18-0.06,2.63,0.49,3.46-0.28
			c0.95-0.89,0.35-2.43,0.36-3.67c0.03-2.96,0.44-2.73-2.69-2.78c-2.39-0.04-4.78,0.17-7.16-0.23c-5.71-0.95-10.05-5.66-10.43-11.37
			c-0.14-2.09,0.66-3.02,2.73-3.14c0.51-0.03,1.03-0.01,1.54-0.01c23.5,0,46.99,0,70.49,0c0.77,0,1.55-0.05,2.3,0.05
			c1.23,0.17,2.1,1.17,2.01,2.27c-0.1,1.13-0.73,1.94-1.86,2.16c-0.74,0.14-1.53,0.09-2.3,0.09c-9.65,0-19.31,0-28.96,0
			c-0.6,0-1.2,0.02-1.79,0c-0.84-0.03-1.24,0.29-1.23,1.18c0.02,4.78,0.02,9.57,0,14.35c0,0.95,0.3,1.43,1.32,1.38
			c0.94-0.04,1.88-0.04,2.82,0c1.95,0.1,2.56,0.69,2.6,2.69c0.06,2.73,0.05,5.47,0,8.2c-0.02,1.09,0.35,1.51,1.47,1.49
			c2.9-0.05,5.81-0.03,8.71-0.01c2.81,0.02,3.44,0.66,3.45,3.49c0.02,5.38,0.06,10.77-0.03,16.15c-0.02,1.46,0.37,2.33,1.74,2.99
			c2.38,1.14,4.66,2.51,6.99,3.76c0.75,0.4,1.51,0.76,2.42,0.66c3.56-0.41,7.12-0.84,10.7-1.14c2.28-0.19,4.27-1.01,6.21-2.16
			c6.42-3.81,13.22-6.74,20.47-8.59c7.14-1.83,14.36-3.06,21.76-2.87c2.57,0.07,5.11,0.4,7.59,1.06c0.65,0.17,1.32,0.41,1.89,0.76
			c1.03,0.63,1.18,1.65,0.82,2.71c-0.35,1.02-1.21,1.37-2.23,1.37c-0.17,0-0.34-0.06-0.5-0.11c-8.17-2.36-16.27-1.08-24.33,0.56
			c-7.83,1.6-15.31,4.28-22.11,8.51c-3.77,2.35-7.79,3.27-12.1,3.62c-5.27,0.43-10.55,0.89-15.73,2.06c-3,0.68-5.95,1.5-8.7,2.94
			c-1.6,0.84-3.08,1.85-4.26,3.23c-1.13,1.34-1.88,2.84-1.77,4.67c0.16,2.88,1.53,4.14,4.43,4.06c2.5-0.07,4.89-0.74,7.29-1.32
			c1.66-0.4,3.33-0.79,4.93-1.37c6.35-2.31,12.9-2.19,19.49-1.74c3.92,0.27,7.82,0.68,11.71,1.3c0.93,0.15,1.87,0.28,2.76,0.55
			c1.2,0.37,1.82,1.48,1.6,2.57c-0.22,1.09-1.24,1.93-2.45,1.81c-1.44-0.15-2.86-0.52-4.29-0.71c-6.44-0.87-12.91-1.39-19.42-1.14
			c-0.6,0.02-1.22-0.02-1.79,0.12C106.9,101.68,102.05,102.97,97.2,104.25z M94.11,71.68c0-4.46-0.05-8.62,0.03-12.78
			c0.02-1.35-0.42-1.77-1.75-1.74c-3.76,0.07-7.51,0.02-11.27,0.02c-12.98,0-25.96,0-38.94,0c-2.26,0-2.26,0.02-2.29,2.18
			c-0.01,0.51,0,1.02,0,1.54c0,30.14,0,60.29,0,90.43c0,1.79-0.01,3.59,0,5.38c0.02,2,0.03,2.04,1.9,2.04
			c16.82,0.01,33.65,0.01,50.47,0c1.8,0,1.84-0.05,1.84-1.83c0.01-15.63-0.01-31.26,0.03-46.88c0-1.26-0.41-2.01-1.5-2.64
			c-4.06-2.36-7.97-4.95-11.83-7.62c-7.8-5.4-15.49-10.93-22.39-17.47c-2.37-2.24-4.69-4.53-4.94-8.09
			c-0.03-0.4-0.36-0.77-0.52-1.16c-1.36-3.3-0.49-5.65,2.72-7.14c3.52-1.63,7.22-1.91,11.02-1.29c4.24,0.69,7.77,3,11.35,5.14
			c1.27,0.76,2.26,1.29,3.5-0.02c0.57-0.6,1.51-0.71,2.38-0.83c2.01-0.27,3.91,0.11,5.75,0.89C91.06,70.38,92.44,70.98,94.11,71.68z
			 M66.93,52.6c0.43,0,0.85,0,1.28,0c3.58,0,7.16-0.05,10.73,0.02c1.25,0.02,1.67-0.42,1.62-1.62c-0.06-1.36,0-2.72-0.01-4.09
			c-0.02-2.1-0.03-2.12-2.06-2.13c-4.77-0.02-9.54-0.01-14.31-0.01c-3.07,0-6.13,0.04-9.2-0.02c-1.11-0.02-1.52,0.36-1.47,1.47
			c0.07,1.53-0.01,3.07,0.02,4.6c0.03,1.72,0.05,1.75,1.91,1.76C59.26,52.61,63.1,52.6,66.93,52.6z M86.5,87.71
			c-6.1-3.2-11.5-7.23-17.38-10.48c-1.87-1.03-3.88-1.76-5.92-2.37c-1.22-0.37-2.45-0.74-3.75-0.74c-1.25,0.01-1.52,0.41-0.9,1.55
			c1.04,1.91,2.69,3.3,4.28,4.71c6,5.33,12.5,10.01,19.08,14.58c0.25,0.17,0.54,0.42,1,0.03C83.24,92.32,84.58,89.98,86.5,87.71z
			 M40.44,23.3c1.43,3.86,3.89,5.59,7.88,5.61c7.24,0.04,14.48,0.05,21.72,0c4.22-0.03,3.63,0.86,3.66-3.83
			c0.01-1.73-0.04-1.77-1.86-1.77c-5.45-0.02-10.9-0.01-16.35-0.01C50.56,23.3,45.62,23.3,40.44,23.3z M67.04,33.49
			C67.04,33.49,67.04,33.48,67.04,33.49c-0.6,0-1.2-0.05-1.79,0c-1.59,0.14-3.63-0.73-4.65,0.4c-0.99,1.09-0.19,3.1-0.33,4.7
			c-0.1,1.18,0.29,1.7,1.57,1.65c2.3-0.09,4.61-0.02,6.92-0.02c5.36,0,5.34,0,4.99-5.39c-0.06-0.95-0.31-1.39-1.32-1.36
			C70.63,33.52,68.83,33.49,67.04,33.49z M92.67,83.49c-0.12-0.58-0.6-0.65-0.97-0.81c-4.85-2.12-9.33-4.92-13.81-7.7
			c-2.67-1.66-5.37-3.29-8.22-4.64c-3.19-1.51-6.19-1.79-9.24-0.91c0.27,0.11,0.49,0.23,0.72,0.28c5.61,1.08,10.65,3.47,15.36,6.63
			c4.03,2.71,8.22,5.15,12.42,7.58C90.43,84.77,91.55,84.66,92.67,83.49z M100.91,81.1c-4.47-3.68-13.67-7.87-15.98-7.38
			C88.42,76.4,98.4,81.09,100.91,81.1z"/>
		<path class="st0" d="M343.48,53.4c0.61-0.33,1.19-0.68,1.8-0.98c4.11-1.98,8.53,0.4,9.16,4.95c0.07,0.5,0.18,1.05,0.06,1.53
			c-0.44,1.78-0.27,3.08,1.49,4.28c1.75,1.18,1.96,3.32,1.71,5.35c-0.28,2.31-1.04,4.48-2.15,6.53c-1.25,2.32-2.53,4.64-3.79,6.95
			c3.71,2.94,4.4,5.52,2.44,9.86c-2.22,4.9-4.55,9.74-6.87,14.59c-1,2.08-2.22,4.02-3.61,5.88c-1.65,2.19-2.73,4.73-3.81,7.24
			c-3.49,8.11-7.67,15.82-12.94,22.92c-2.14,2.88-4.35,5.71-6.94,8.21c-1.35,1.31-2.78,2.53-4.46,3.42
			c-1.82,0.96-3.56,1.97-4.83,3.7c-0.81,1.1-2.01,1.15-2.93,0.43c-0.87-0.68-1.08-1.86-0.39-3c0.95-1.57,2.27-2.85,3.9-3.62
			c4.48-2.12,7.64-5.68,10.57-9.49c4.65-6.04,8.72-12.44,11.87-19.4c1.65-3.65,2.93-7.56,5.23-10.82
			c4.58-6.48,7.45-13.79,10.87-20.85c0.56-1.16,1.1-2.32,0.99-3.66c-0.04-0.54-0.27-1-0.87-1.12c-0.45-0.09-0.88,0.03-1.15,0.38
			c-0.41,0.54-0.77,1.13-1.15,1.7c-5.85,9.03-11.69,18.07-17.54,27.1c-0.37,0.57-0.71,1.18-1.15,1.69
			c-0.74,0.87-1.64,1.22-2.72,0.58c-1.05-0.62-1.36-1.65-0.77-2.86c0.34-0.69,0.78-1.32,1.2-1.97c6.89-10.7,13.81-21.37,20.65-32.1
			c1.7-2.66,3.16-5.47,4.65-8.25c0.77-1.43,1.32-2.96,1.38-4.63c0.02-0.6,0.11-1.23-0.34-1.71c-0.55-0.58-1.18-1.1-1.88-0.16
			c-0.41,0.55-0.81,1.1-1.2,1.66c-8.6,12.22-17.2,24.45-25.81,36.67c-0.44,0.63-0.86,1.28-1.39,1.83c-0.73,0.76-1.64,0.91-2.56,0.32
			c-1.01-0.65-1.25-1.62-0.77-2.68c0.31-0.69,0.8-1.31,1.24-1.93c9.24-13.13,18.48-26.27,27.72-39.39c0.69-0.98,1.43-1.93,1.73-3.11
			c0.36-1.38-0.03-2.56-1.02-3.19c-1.09-0.69-1.97-0.07-2.81,0.52c-1.34,0.95-2.36,2.22-3.37,3.49
			c-9.71,12.25-19.43,24.49-29.15,36.74c-0.42,0.53-0.83,1.1-1.31,1.57c-0.85,0.82-1.82,0.94-2.77,0.19
			c-0.93-0.74-1.11-1.71-0.5-2.73c0.39-0.65,0.9-1.24,1.38-1.84c9.29-11.71,18.58-23.42,27.87-35.14c0.32-0.4,0.63-0.8,0.96-1.2
			c0.63-0.77,0.63-1.55,0.03-2.33c-0.63-0.82-1.39-0.86-2.26-0.42c-1.84,0.93-3.5,2.11-5.02,3.5c-6.9,6.27-13.33,13.01-19.68,19.82
			c-5.65,6.06-11.42,12.01-17.38,17.78c-2.12,2.05-4.46,3.67-6.97,5.16c-2.4,1.43-4.97,2.64-6.48,5.24c-0.58,1-1.83,1.06-2.72,0.44
			c-0.97-0.68-1.21-1.63-0.79-2.71c0.62-1.57,1.77-2.79,3.16-3.6c1.84-1.07,2.46-2.56,2.57-4.58c0.26-4.95,0.55-9.89-0.31-14.82
			c-0.37-2.12-0.99-4.15-2.25-5.93c-1.17-1.67-2.72-2.85-4.75-3.24c-1.62-0.31-2.24,0.24-2.19,1.88c0.05,1.55,0.45,3.06,1.04,4.47
			c1.09,2.59,0.88,5.08,0.11,7.72c-1.35,4.67-2.48,9.4-3.65,14.12c-1.3,5.24-0.65,10.55-0.44,15.82c0.31,7.77,0.76,15.53,0.85,23.3
			c0.02,1.51-0.27,2.87-1.03,4.15c-3.12,5.25-7.23,9.73-11.28,14.23c-0.94,1.05-2.06,1.08-2.96,0.36c-0.96-0.76-1.09-2.02-0.16-3.18
			c1.17-1.47,2.41-2.88,3.7-4.25c0.78-0.83,1.02-1.69,0.81-2.79c-0.45-2.37-1.04-4.64-2.66-6.55c-1.05-1.23-1.9-2.63-2.81-3.97
			c-1.06-1.56-2.19-2.95-3.89-3.96c-2.04-1.21-3.33-3.18-3.87-5.52c-0.28-1.2-0.8-2.22-1.55-3.18c-1.2-1.55-2.27-3.21-3.53-4.72
			c-3.79-4.52-6.33-9.7-8.25-15.23c-1.2-3.47-2.43-6.93-3.57-10.41c-0.47-1.44-1.19-2.56-2.51-3.4c-1.73-1.1-3.36-2.36-4.67-3.96
			c-2.81-3.44-2.12-7.09,1.85-9.12c4.38-2.24,8.62-1.51,12.66,0.95c2.12,1.3,3.94,3,5.74,4.71c0.37,0.35,0.72,0.73,1.09,1.09
			c0.35,0.34,0.65,0.9,1.25,0.6c0.66-0.34,0.6-0.99,0.42-1.58c-0.44-1.51-0.54-3.04-0.24-4.56c0.71-3.66,2.66-6.45,6.02-8.12
			c1.02-0.5,1.58-0.96,1.41-2.26c-0.54-4.12,0.64-7.78,3.35-10.92c0.6-0.7,0.77-1.47,0.96-2.31c1.39-6.25,2.77-12.49,4.47-18.67
			c0.55-1.98,1.3-3.89,2.36-5.65c1.63-2.72,3.56-3.66,6.65-3.02c1.09,0.23,1.48-0.02,1.91-0.97c1.1-2.43,2.86-4.06,5.73-3.93
			c3.01,0.13,5.24,1.57,6.35,4.38c0.47,1.2,0.98,1.73,2.35,1.68c2.66-0.1,4.19,1.64,5.32,3.78c1.47,2.78,1.75,5.86,2.09,8.92
			c0.08,0.68,0.07,1.37,0.13,2.05c0.09,1.02-0.04,2.16,0.39,3.02c0.46,0.91,1.71,0.29,2.6,0.57c2.26,0.71,3.61,2.29,4.27,4.42
			c0.86,2.76,1.46,5.6,1.84,8.47c0.09,0.65-0.13,1.35,0.65,1.79c1.72,0.99,3.19,2.28,4.43,3.84c1.23,1.55,2.03,3.34,2.74,5.2
			c1.03-0.41,1.53-1.24,2.15-1.9c4.56-4.87,9.36-9.49,14.23-14.03c1.63-1.52,3.42-2.84,5.38-3.89c3.4-1.82,5.52-1.48,8.27,1.26
			C343.04,53.05,343.24,53.2,343.48,53.4z M288.18,96.04c1.18-0.21,1.7-0.78,2.25-1.31c6.09-5.74,11.96-11.7,17.67-17.82
			c0.85-0.91,1.09-1.79,0.86-3c-1.15-6.05-6.25-9.84-12.48-9.16c-0.94,0.1-1.91,0.33-2.68-0.4c-2.08-1.98-4.53-2.91-7.4-3
			c-1.39-0.04-1.95-0.81-1.94-2.2c0-0.68,0.16-1.35,0.21-2.04c0.11-1.58-0.21-3.06-1.16-4.36c-1.66-2.28-3.91-3.23-6.69-2.83
			c-2.82,0.41-4.56,2.13-5.49,4.75c-0.84,2.38-0.84,2.38-3.16,2.52c-7.04,0.41-11.24,6.48-9.23,13.36c0.69,2.38,0.31,3.06-2.05,3.61
			c-4.87,1.14-7.01,5.05-5.29,9.67c0.79,2.11,0.76,2.23-0.9,3.69c-2.11,1.85-2.47,3.4-1.07,5.85c0.67,1.18,0.66,2.12,0.1,3.34
			c-1.87,4.05-0.79,7.21,3.1,9.51c2.04,1.21,2.22,2.2,0.73,4.04c-2.13,2.63-2.06,4.61,0.27,7.21c1.3,1.45,1.33,2.07,0.17,3.53
			c-0.27,0.33-0.59,0.62-0.84,0.97c-1.34,1.92-1.53,3.96-0.48,6.04c1.12,2.19,2.98,3.19,5.44,3.11c1.74-0.06,3.04-0.89,4.22-2.11
			c1.34-1.39,1.99-1.39,3.56-0.4c0.54,0.34,0.86,1.1,1.86,0.92c-0.27-6.46-0.45-12.94-0.85-19.4c-0.19-3.1,0.01-6.13,0.55-9.17
			c0.91-5.13,2.29-10.15,3.78-15.13c0.69-2.29,0.85-4.44-0.08-6.7c-0.81-1.99-1.17-4.1-0.97-6.27c0.28-3.01,2.15-4.8,5.17-4.98
			c2.22-0.13,4.22,0.52,6.04,1.73c2.51,1.66,4.17,4,5.23,6.78c0.98,2.57,1.4,5.26,1.62,7.99C288.57,88.22,288.33,92.04,288.18,96.04
			z M231.18,80.92c-0.99,0.1-2,0.23-2.95,0.67c-1.83,0.84-2,1.57-0.66,3.05c1.1,1.21,2.39,2.21,3.77,3.05
			c2.01,1.22,3.15,2.98,3.88,5.18c1.35,4.13,2.89,8.2,4.25,12.32c1.8,5.45,5.09,10,8.57,14.43c0.11,0.13,0.18,0.33,0.32,0.39
			c0.21,0.1,0.5,0.2,0.68,0.13c0.31-0.13,0.54-0.48,0.46-0.8c-0.1-0.4-0.35-0.77-0.56-1.14c-1.41-2.54-1.68-5.2-0.49-7.86
			c0.48-1.07,0.23-1.65-0.53-2.42c-3.24-3.27-4.09-7.15-2.76-11.54c0.15-0.48,0.47-0.91,0.34-1.46c-0.82-3.3-1.61-6.58-4.65-8.72
			c-1.46-1.03-2.74-2.3-4.16-3.39C235.09,81.59,233.21,81.06,231.18,80.92z M263.29,53.74c1.01-0.24,1.49-0.44,1.97-0.46
			c1.5-0.07,2.45-0.7,3.03-2.16c0.51-1.27,1.49-2.31,2.62-3.08c1.07-0.72,1.28-1.64,1.3-2.83c0.04-3.4,0.15-6.81,0.3-10.21
			c0.05-1.22-0.12-2.24-1.47-2.6c-1.32-0.35-1.82,0.64-2.28,1.55c-0.97,1.9-1.63,3.92-2.13,5.99
			C265.57,44.4,264.48,48.84,263.29,53.74z M292.16,58.04c0.11-6.57-0.29-12.84-1.06-19.08c-0.19-1.51-0.66-2.98-1.49-4.31
			c-0.51-0.82-1.19-1.24-2.13-0.98c-0.92,0.25-0.66,1.08-0.66,1.71c0.01,4.51,0.05,9.01,0.09,13.52c0.01,0.5,0,1.08,0.24,1.49
			c1.11,1.87,1.77,3.86,1.89,6.02c0.04,0.76,0.48,1.03,1.1,1.17C290.72,57.71,291.29,57.84,292.16,58.04z M282.55,46.35
			c0-5.2,0-10.14,0-15.09c0-0.87-0.23-1.7-0.71-2.42c-1.16-1.74-3.12-1.66-3.98,0.22c-0.42,0.92-0.79,1.93-0.85,2.93
			c-0.26,4.09-0.38,8.18-0.57,12.27c-0.04,0.81,0.17,1.3,1.12,1.24C279.19,45.38,280.73,45.98,282.55,46.35z M265.08,144.9
			c2.58-2.38,3.38-4.98,2.94-8.09c-0.14-1.01-0.43-1.59-1.27-2.25c-1.62-1.28-2.99-1.47-4.63-0.14c-0.6,0.49-1.48,0.65-2.32,0.99
			C261.55,138.63,264.33,141.03,265.08,144.9z M296.41,56.1c0,0,0.01,0,0.01,0c0,1.1,0,2.2,0,3.3c0,0.45,0.14,0.87,0.67,0.88
			c1.08,0.02,2.38,0.35,3.19-0.13c0.85-0.51-0.09-1.65-0.24-2.52c-0.17-1-0.32-2-0.56-2.99c-0.16-0.65-0.41-1.28-0.71-1.88
			c-0.28-0.56-0.78-0.89-1.45-0.77c-0.73,0.14-0.9,0.69-0.9,1.32C296.4,54.24,296.41,55.17,296.41,56.1z"/>
		<path class="st0" d="M490.23,97.27c3.39,0,6.78-0.03,10.17,0.01c2.82,0.03,5.63,0.23,8.38,0.98c2.83,0.77,4.75,2.38,4.78,5.52
			c0.01,1,0.4,1.37,1.26,1.57c5.41,1.23,5.37,8.24,1.62,10.64c-1.01,0.65-1.36,1.34-1.15,2.5c0.28,1.51-0.36,2.83-1.25,4.12
			c1.59,1.03,3.3,1.57,4.92,2.29c2.27,1.01,4.47,2.14,6.41,3.71c2.13,1.73,3.14,3.86,2.05,6.54c-0.36,0.9-0.2,1.29,0.5,1.91
			c4.19,3.73,3.02,8.87-2.4,10.57c-0.97,0.3-1.58,0.59-1.81,1.74c-0.39,2.02-1.86,3.19-3.76,3.83c-2.3,0.78-4.67,0.98-7.08,0.72
			c-1.61-0.17-3.23-0.28-4.85-0.47c-0.76-0.09-1.27-0.05-1.5,0.88c-0.78,3.21-3.27,4.14-6.17,4.38c-2.31,0.19-4.6-0.27-6.89-0.48
			c-6.8-0.61-13.63-1.13-20.33-2.48c-7.35-1.49-14.78-2.72-21.8-5.51c-1.12-0.45-2.19-0.17-3.27-0.02
			c-5.41,0.77-10.82,1.65-16.31,1.14c-2.06-0.19-4.08-0.18-6.13,0.06c-4.01,0.48-7.82,1.74-11.65,2.93
			c-4.97,1.54-9.95,3.07-15.06,4.11c-0.67,0.14-1.34,0.34-2.02,0.21c-0.92-0.17-1.56-0.69-1.71-1.66c-0.16-1.03,0.17-1.87,1.17-2.31
			c0.38-0.17,0.82-0.25,1.23-0.33c6.29-1.24,12.37-3.25,18.48-5.15c5.76-1.8,11.59-2.66,17.67-2.06c4.17,0.41,8.35-0.38,12.49-0.94
			c7.73-1.03,15.23-2.95,22.46-5.94c3.08-1.27,6.22-2.36,9.58-2.67c0.67-0.06,1.34-0.29,1.98-0.52c4.82-1.71,9.65-3.41,14.45-5.19
			c0.89-0.33,2.4-0.71,2-1.9c-0.42-1.27-1.76-0.38-2.64-0.19c-9.27,1.95-18.52,3.96-27.78,5.95c-0.5,0.11-1,0.3-1.5,0.3
			c-1.19,0.02-1.97-0.65-2.2-1.76c-0.22-1.03,0.3-1.85,1.27-2.25c0.62-0.26,1.31-0.37,1.98-0.52c11.57-2.6,23.22-4.83,34.74-7.67
			c2.4-0.59,4.8-1.23,7.1-2.15c1.19-0.48,2.33-1.08,3.16-2.11c0.28-0.35,0.33-0.83,0.1-1.2c-0.18-0.29-0.58-0.33-0.93-0.27
			c-2.53,0.41-5.06,0.81-7.58,1.25c-11.01,1.94-22.01,3.9-33.02,5.86c-0.25,0.04-0.5,0.1-0.76,0.12c-1.66,0.17-2.73-0.49-2.9-1.77
			c-0.15-1.17,0.55-2.07,2.11-2.38c3.43-0.68,6.88-1.28,10.32-1.89c11.01-1.93,22.03-3.84,33.04-5.77c1.02-0.18,2-0.44,2.83-1.1
			c0.59-0.47,0.77-1.09,0.71-1.82c-0.07-0.86-0.71-1.06-1.39-1.26c-1.18-0.33-2.35-0.29-3.56-0.15
			c-11.28,1.33-22.56,2.63-33.83,3.95c-2.12,0.25-4.23,0.55-6.35,0.79c-1.1,0.13-2.21,0.26-3.32,0.26c-1.33,0-2.25-0.81-2.25-1.94
			c0-1.18,0.65-1.95,1.79-2.17c1.34-0.25,2.7-0.38,4.06-0.54c12.3-1.42,24.6-2.84,36.89-4.26c0.42-0.05,0.85-0.11,1.26-0.2
			c0.65-0.14,1.06-0.51,1.13-1.21c0.07-0.72-0.33-1.14-0.95-1.34c-1.3-0.41-2.62-0.76-4-0.82c-6.32-0.29-12.63-0.38-18.96-0.17
			c-10.07,0.34-20.14,0.88-30.23,0.43c-2.26-0.1-4.35-0.79-6.52-1.25c-2.07-0.43-4.09-1.15-6.29-0.55c-1.14,0.31-1.99-0.4-2.31-1.52
			c-0.3-1.03,0.16-1.86,1.05-2.39c1.5-0.87,3.18-0.83,4.74-0.45c1.46,0.35,2.39-0.02,3.35-1.08c2.41-2.66,4.82-5.32,6.83-8.3
			c1-1.49,1.95-3,2.54-4.72c0.49-1.42,0.59-2.86,0.26-4.29c-0.25-1.07-0.63-2.32-1.82-2.58c-0.99-0.22-1.61,0.81-2.23,1.49
			c-0.63,0.69-1.28,1.41-1.73,2.22c-1.56,2.76-3.87,4.71-6.46,6.44c-5.77,3.88-10.91,8.45-15.5,13.71
			c-4.66,5.34-9.63,10.41-14.42,15.64c-1.13,1.24-2.42,2.14-4,2.65c-4.72,1.55-9.6,2.38-14.48,3.24c-0.17,0.03-0.34,0.05-0.51,0.05
			c-1.44,0.01-2.24-0.57-2.4-1.75c-0.16-1.2,0.41-2.09,1.78-2.39c3.25-0.71,6.52-1.32,9.78-1.99c0.84-0.17,1.65-0.43,2.49-0.58
			c2.01-0.37,3.57-1.36,4.95-2.9c4.4-4.89,9.05-9.56,13.36-14.52c4.86-5.59,10.28-10.49,16.42-14.59c2.23-1.49,4.15-3.22,5.56-5.55
			c0.98-1.61,2.22-3.04,3.74-4.19c2.9-2.18,5.87-1.78,8.02,1.15c2.14,2.92,2.27,6.17,1.39,9.54c-0.41,1.58-1.17,3.02-2.01,4.42
			c-1.77,2.94-3.9,5.6-6.15,8.18c-0.55,0.63-1.31,1.11-1.53,2.09c0.94,0.8,2.1,0.35,3.14,0.51c4.57,0.72,8.45-0.69,12.1-3.46
			c3.4-2.57,7.08-4.77,10.66-7.09c1.17-0.75,2.12-1.72,3.08-2.68c1.28-1.27,2.61-2.47,4.27-3.22c2.99-1.35,5.62-0.4,7.01,2.58
			c1.41,3.02,1.01,5.98-0.4,8.88c-0.71,1.47-1.74,2.72-2.85,3.91C490.08,96.88,490.15,97.07,490.23,97.27z M474.66,143.21
			c10.53,1.9,20.98,3.85,31.46,5.65c3.18,0.55,6.42,0.92,9.68,0.77c1.11-0.05,2.23-0.1,3.21-0.71c0.38-0.23,0.66-0.57,0.64-1.03
			c-0.03-0.53-0.52-0.61-0.9-0.75c-0.32-0.11-0.67-0.14-1-0.21c-9.85-2.03-19.71-4.02-29.54-6.11c-2.31-0.49-4.47-0.65-6.73,0.29
			c-1.39,0.58-2.99,0.64-4.47,1.01C476.22,142.34,475.24,142.11,474.66,143.21z M492.96,137.5c9.48,1.95,18.73,3.88,27.99,5.76
			c1.23,0.25,2.49,0.66,3.78,0.16c0.69-0.27,1.15-0.71,1.32-1.43c0.18-0.8-0.27-1.3-0.87-1.69c-1.15-0.77-2.44-1.19-3.77-1.54
			c-6.01-1.58-12.04-3.11-18.02-4.79c-1.89-0.53-3.5-0.94-5.03,0.8c-0.71,0.81-1.92,1.05-2.95,1.45
			C494.65,136.51,493.73,136.52,492.96,137.5z M459.61,148.06c0.02,0.13,0.03,0.27,0.05,0.4c4.66,1.03,9.29,2.22,13.98,3.06
			c7.48,1.34,15.05,2.04,22.62,2.66c1.27,0.1,2.56,0.32,3.82,0.25c0.84-0.05,2.17,0.03,2.15-1.24c-0.01-0.96-1.26-0.57-1.89-0.92
			c-0.14-0.08-0.33-0.08-0.5-0.11c-10.82-2.01-21.64-4.02-32.46-6.03c-0.67-0.13-1.34-0.31-2.02-0.07
			C463.45,146.71,461.53,147.39,459.61,148.06z M471.24,97.39c4.02,0,7.65,0,11.28,0c0.54,0,0.99-0.21,1.36-0.6
			c1.46-1.54,2.97-3.04,4.37-4.64c0.9-1.04,1.41-2.32,1.52-3.72c0.09-1.19,0.26-2.61-0.91-3.24c-1.01-0.54-1.79,0.64-2.58,1.21
			c-0.48,0.35-0.92,0.76-1.32,1.2c-1.44,1.6-3.16,2.82-4.95,3.98C477.15,93.44,474.33,95.34,471.24,97.39z M500.97,128.28
			c0.55,0.97,1.28,0.98,1.9,1.15c5.91,1.58,11.84,3.14,17.76,4.71c0.33,0.09,0.66,0.17,0.98,0.28c0.77,0.26,1.37,0,1.72-0.68
			c0.38-0.74-0.02-1.32-0.6-1.75c-0.68-0.51-1.36-1.03-2.09-1.46c-3.25-1.88-6.79-3.13-10.24-4.57c-0.57-0.24-1.13-0.25-1.73-0.05
			C506.16,126.69,503.65,127.45,500.97,128.28z"/>
		<path class="st0" d="M502.15,38.17c-8.03,0-16.06,0-24.09,0c-0.77,0-1.55-0.03-2.3,0.09c-2.26,0.36-3.46,1.73-3.5,3.99
			c-0.04,1.96,0.03,3.93-0.02,5.89c-0.02,1.02,0.24,1.61,1.4,1.59c3.33-0.04,6.66-0.03,10,0c0.98,0.01,1.41-0.39,1.32-1.37
			c-0.03-0.34-0.02-0.68,0-1.02c0.1-2.24,0.69-2.86,2.96-2.89c2.99-0.04,5.98-0.01,8.97-0.01c10,0,19.99,0,29.99,0
			c1.28,0,2.76-0.21,3.3,1.3c0.61,1.7,0.74,3.57-0.18,5.2c-0.84,1.5-3.11,1.21-3.55-0.54c-0.4-1.56-1.18-1.73-2.51-1.73
			c-10.76,0.04-21.53,0.02-32.29,0.02c-2.06,0-2.54-0.28-2.51,2.31c0.03,2.44-0.59,3.02-3.02,3.04c-4.95,0.03-9.91,0.03-14.87,0
			c-2.58-0.01-3.19-0.63-3.21-3.15c-0.03-2.9-0.02-5.81,0-8.71c0.02-4.43,2.79-7.56,7.23-8.13c1.01-0.13,2.04-0.14,3.07-0.14
			c7.69-0.01,15.38-0.01,23.07-0.01c2.8,0,2.55,0.1,2.57-2.43c0.02-3.93,0.03-3.93-3.88-3.93c-4.36,0-8.71,0-13.07,0
			c-0.6,0-1.2,0.02-1.79-0.04c-1.19-0.12-1.86-0.78-1.92-1.99c-0.06-1.22,0.67-1.98,2.03-2.16c0.42-0.05,0.85-0.02,1.28-0.02
			c10.34,0,20.68,0,31.01,0c0.26,0,0.51-0.01,0.77,0.01c1.83,0.13,2.44,0.68,2.5,2.52c0.07,2.13,0.07,4.27,0,6.41
			c-0.04,1.22,0.4,1.74,1.61,1.65c0.68-0.05,1.37-0.04,2.05,0c0.99,0.06,1.49-0.24,1.76-1.33c0.35-1.42,1.32-2.04,2.34-1.81
			c1.26,0.29,1.81,1.19,1.85,2.43c0.01,0.17,0,0.34,0.01,0.51c0.15,3.93-0.34,4.44-4.27,4.45
			C518.22,38.17,510.19,38.17,502.15,38.17z M512.43,27.55c-4.32,0-4.32,0-4.21,4.36c0.01,0.26,0.02,0.51,0.01,0.77
			c-0.03,0.85,0.37,1.24,1.22,1.23c1.7-0.01,3.4,0.02,5.1,0c2.11-0.02,2.11-0.04,2.15-2.07C516.77,27.55,516.77,27.55,512.43,27.55z
			"/>
		<path class="st0" d="M101.28,46.82c-0.02-3,0.79-5.15,1.84-7.21c1.79-3.52,4.18-6.62,6.91-9.46c1.62-1.68,2.7-1.7,4.3-0.04
			c2.91,3.02,5.44,6.33,7.25,10.13c1.11,2.33,1.79,4.76,1.42,7.41c-0.8,5.78-5.92,9.95-11.68,9.48
			C105.64,56.68,101.25,51.89,101.28,46.82z M112.18,34.55c-2.58,3.04-4.82,5.93-5.97,9.47c-0.86,2.65-0.34,5.06,1.8,6.98
			c1.9,1.7,4.63,2.07,6.92,0.98c3.12-1.49,4.43-4.9,3.09-8.45C116.77,40.22,114.68,37.43,112.18,34.55z"/>
		<path class="st0" d="M331.28,40.63c0.06,5.6-4.38,10.16-9.95,10.23c-5.53,0.07-10.11-4.49-10.12-10.06
			c-0.01-5.57,4.55-10.15,10.08-10.11C326.75,30.73,331.22,35.18,331.28,40.63z M321.13,46.51c3.28,0.05,5.93-2.53,5.93-5.75
			c-0.01-3.13-2.54-5.67-5.7-5.72c-3.28-0.05-5.93,2.53-5.93,5.75C315.44,43.91,317.98,46.47,321.13,46.51z"/>
		<path class="st0" d="M226.6,134.95c-0.02-4.42,3.53-8.01,7.93-7.99c4.37,0.01,7.99,3.68,7.94,8.03c-0.05,4.28-3.57,7.79-7.85,7.84
			C230.18,142.88,226.63,139.39,226.6,134.95z M238.15,135.13c0.13-2.04-1.52-3.86-3.55-3.91c-1.9-0.05-3.64,1.55-3.76,3.47
			c-0.13,2,1.56,3.85,3.58,3.91C236.32,138.67,238.03,137.08,238.15,135.13z"/>
		<path class="st0" d="M241.43,61.37c-4.15,0.02-7.56-3.37-7.49-7.45c0.06-3.97,3.43-7.32,7.4-7.36c4.09-0.04,7.46,3.37,7.43,7.52
			C248.73,58.14,245.51,61.35,241.43,61.37z M241.46,57.14c1.66-0.04,3.07-1.48,3.08-3.13c0-1.79-1.51-3.19-3.33-3.09
			c-1.75,0.09-2.97,1.45-2.9,3.22C238.37,55.85,239.77,57.18,241.46,57.14z"/>
		<path class="st0" d="M468.04,72.84c0-3.67-0.01-7.33,0-11c0-0.68-0.05-1.39,0.12-2.03c0.26-1,1-1.59,2.07-1.54
			c1.05,0.05,1.75,0.63,1.95,1.69c0.09,0.5,0.07,1.02,0.07,1.53c0,7.67,0.01,15.34,0,23.02c0,2.37-0.7,3.42-2.17,3.35
			c-1.37-0.06-2.03-1.08-2.03-3.26C468.03,80.68,468.04,76.76,468.04,72.84z"/>
		<path class="st0" d="M480.79,69.96c0,2.9-0.02,5.81,0.01,8.71c0.01,0.99-0.17,1.89-1.04,2.47c-1.12,0.74-2.71,0.17-3.08-1.15
			c-0.18-0.64-0.18-1.35-0.18-2.03c-0.01-5.38-0.01-10.76,0-16.13c0-0.6,0-1.2,0.09-1.79c0.17-1.04,0.82-1.7,1.89-1.77
			c1.2-0.08,1.93,0.61,2.22,1.71c0.15,0.57,0.09,1.19,0.09,1.78C480.8,64.5,480.79,67.23,480.79,69.96z"/>
		<path class="st0" d="M489.17,67.96c0,2.22,0.03,4.44-0.01,6.66c-0.04,1.77-0.78,2.63-2.1,2.61c-1.31-0.02-2.07-0.9-2.09-2.65
			c-0.04-4.52-0.01-9.04-0.01-13.57c0-0.26-0.01-0.52,0.03-0.77c0.21-1.28,1.11-2.11,2.23-1.98c1.16,0.14,1.9,0.82,1.91,2.02
			c0.04,2.56,0.01,5.12,0.01,7.68C489.16,67.96,489.16,67.96,489.17,67.96z"/>
	</g>
</g>
</svg>
